<svg width="25" height="20" viewBox="0 0 25 20" fill="none" xmlns="http://www.w3.org/2000/svg">
<g id="Vector">
<mask id="path-1-outside-1_0_1" maskUnits="userSpaceOnUse" x="-1" y="0" width="26" height="21" fill="black">
<rect fill="white" x="-1" width="26" height="21"/>
<path d="M20.8711 2.41112L19.9336 2.10055C19.2333 1.86325 18.3772 2.05634 17.8409 2.57048C17.2954 3.06136 17.043 3.86165 17.1965 4.58284C17.2803 5.05394 17.4408 6.00894 17.5245 6.48004C17.8025 7.93755 17.8479 9.49393 17.5874 10.9224C17.3722 12.11 16.7312 14.0584 15.4226 14.2561C14.9364 14.3294 14.7131 14.0281 14.9352 13.5884C16.0042 11.4702 16.7591 8.93559 16.0159 6.83715C15.7297 6.0008 15.0004 5.17259 14.1326 4.8341C12.838 4.32926 11.263 4.47583 10.1765 5.42036C7.78146 7.61534 8.85511 12.0041 10.6988 14.412C10.8628 14.626 10.807 14.9331 10.5825 15.082C10.2882 15.2763 9.96365 15.3623 9.61469 15.246C8.669 14.8529 8.06762 13.7106 7.73028 12.7602C7.41273 11.839 7.27779 10.8293 7.30804 9.84871C7.3534 8.98793 7.49648 7.34547 7.5558 6.49051C7.70935 5.11443 6.48448 3.91516 5.10956 4.12337C5.05024 4.13384 4.92229 4.15711 4.86761 4.17107C4.29531 4.31763 3.13559 4.6189 2.34693 4.82595C2.10149 4.88993 1.95377 5.13886 2.01309 5.38546L2.34577 6.76154C2.40509 7.00698 2.65053 7.16052 2.89713 7.10585C3.34381 7.00698 3.92774 6.87554 4.43606 6.76154C4.73617 6.69407 5.01302 6.94068 4.98161 7.24544C4.91531 7.98873 4.71989 9.56605 4.73501 10.2954C4.74548 12.3752 5.28405 14.4853 6.58219 16.1661C7.70353 17.6143 9.54606 18.4704 11.3362 17.7272C11.933 17.4887 12.4587 17.1072 12.9124 16.6523C13.045 16.5197 13.2416 16.4779 13.4161 16.5477C14.6095 17.0257 15.9449 17.0804 17.1279 16.4174C18.9367 15.3996 19.7812 13.3011 20.1115 11.3679C20.4116 9.58117 20.3314 7.81192 19.9731 6.07408C19.9231 5.8112 19.8428 5.40291 19.7661 5.00742C19.7242 4.79222 19.9266 4.6096 20.1371 4.67357L20.1511 4.67823L21.5853 5.11443C21.8284 5.18888 22.0867 5.05278 22.1646 4.81083L22.5927 3.46965C22.6706 3.2277 22.538 2.96714 22.2972 2.88688L20.8711 2.41112ZM13.4184 9.90106C13.2649 10.549 13.0357 11.1911 12.7577 11.8145C12.6577 12.039 12.3413 12.0483 12.2308 11.8285C11.976 11.3213 11.7852 10.7874 11.6585 10.2756C11.4747 9.43228 11.3863 8.56918 11.7143 7.79913C11.9237 7.27568 12.5018 7.19077 13.0031 7.31639C13.8372 7.56997 13.5731 9.2229 13.4184 9.90106Z"/>
</mask>
<path d="M20.8711 2.41112L19.9336 2.10055C19.2333 1.86325 18.3772 2.05634 17.8409 2.57048C17.2954 3.06136 17.043 3.86165 17.1965 4.58284C17.2803 5.05394 17.4408 6.00894 17.5245 6.48004C17.8025 7.93755 17.8479 9.49393 17.5874 10.9224C17.3722 12.11 16.7312 14.0584 15.4226 14.2561C14.9364 14.3294 14.7131 14.0281 14.9352 13.5884C16.0042 11.4702 16.7591 8.93559 16.0159 6.83715C15.7297 6.0008 15.0004 5.17259 14.1326 4.8341C12.838 4.32926 11.263 4.47583 10.1765 5.42036C7.78146 7.61534 8.85511 12.0041 10.6988 14.412C10.8628 14.626 10.807 14.9331 10.5825 15.082C10.2882 15.2763 9.96365 15.3623 9.61469 15.246C8.669 14.8529 8.06762 13.7106 7.73028 12.7602C7.41273 11.839 7.27779 10.8293 7.30804 9.84871C7.3534 8.98793 7.49648 7.34547 7.5558 6.49051C7.70935 5.11443 6.48448 3.91516 5.10956 4.12337C5.05024 4.13384 4.92229 4.15711 4.86761 4.17107C4.29531 4.31763 3.13559 4.6189 2.34693 4.82595C2.10149 4.88993 1.95377 5.13886 2.01309 5.38546L2.34577 6.76154C2.40509 7.00698 2.65053 7.16052 2.89713 7.10585C3.34381 7.00698 3.92774 6.87554 4.43606 6.76154C4.73617 6.69407 5.01302 6.94068 4.98161 7.24544C4.91531 7.98873 4.71989 9.56605 4.73501 10.2954C4.74548 12.3752 5.28405 14.4853 6.58219 16.1661C7.70353 17.6143 9.54606 18.4704 11.3362 17.7272C11.933 17.4887 12.4587 17.1072 12.9124 16.6523C13.045 16.5197 13.2416 16.4779 13.4161 16.5477C14.6095 17.0257 15.9449 17.0804 17.1279 16.4174C18.9367 15.3996 19.7812 13.3011 20.1115 11.3679C20.4116 9.58117 20.3314 7.81192 19.9731 6.07408C19.9231 5.8112 19.8428 5.40291 19.7661 5.00742C19.7242 4.79222 19.9266 4.6096 20.1371 4.67357L20.1511 4.67823L21.5853 5.11443C21.8284 5.18888 22.0867 5.05278 22.1646 4.81083L22.5927 3.46965C22.6706 3.2277 22.538 2.96714 22.2972 2.88688L20.8711 2.41112ZM13.4184 9.90106C13.2649 10.549 13.0357 11.1911 12.7577 11.8145C12.6577 12.039 12.3413 12.0483 12.2308 11.8285C11.976 11.3213 11.7852 10.7874 11.6585 10.2756C11.4747 9.43228 11.3863 8.56918 11.7143 7.79913C11.9237 7.27568 12.5018 7.19077 13.0031 7.31639C13.8372 7.56997 13.5731 9.2229 13.4184 9.90106Z" fill="url(#paint0_linear_0_1)"/>
<path d="M20.8711 2.41112L19.9336 2.10055C19.2333 1.86325 18.3772 2.05634 17.8409 2.57048C17.2954 3.06136 17.043 3.86165 17.1965 4.58284C17.2803 5.05394 17.4408 6.00894 17.5245 6.48004C17.8025 7.93755 17.8479 9.49393 17.5874 10.9224C17.3722 12.11 16.7312 14.0584 15.4226 14.2561C14.9364 14.3294 14.7131 14.0281 14.9352 13.5884C16.0042 11.4702 16.7591 8.93559 16.0159 6.83715C15.7297 6.0008 15.0004 5.17259 14.1326 4.8341C12.838 4.32926 11.263 4.47583 10.1765 5.42036C7.78146 7.61534 8.85511 12.0041 10.6988 14.412C10.8628 14.626 10.807 14.9331 10.5825 15.082C10.2882 15.2763 9.96365 15.3623 9.61469 15.246C8.669 14.8529 8.06762 13.7106 7.73028 12.7602C7.41273 11.839 7.27779 10.8293 7.30804 9.84871C7.3534 8.98793 7.49648 7.34547 7.5558 6.49051C7.70935 5.11443 6.48448 3.91516 5.10956 4.12337C5.05024 4.13384 4.92229 4.15711 4.86761 4.17107C4.29531 4.31763 3.13559 4.6189 2.34693 4.82595C2.10149 4.88993 1.95377 5.13886 2.01309 5.38546L2.34577 6.76154C2.40509 7.00698 2.65053 7.16052 2.89713 7.10585C3.34381 7.00698 3.92774 6.87554 4.43606 6.76154C4.73617 6.69407 5.01302 6.94068 4.98161 7.24544C4.91531 7.98873 4.71989 9.56605 4.73501 10.2954C4.74548 12.3752 5.28405 14.4853 6.58219 16.1661C7.70353 17.6143 9.54606 18.4704 11.3362 17.7272C11.933 17.4887 12.4587 17.1072 12.9124 16.6523C13.045 16.5197 13.2416 16.4779 13.4161 16.5477C14.6095 17.0257 15.9449 17.0804 17.1279 16.4174C18.9367 15.3996 19.7812 13.3011 20.1115 11.3679C20.4116 9.58117 20.3314 7.81192 19.9731 6.07408C19.9231 5.8112 19.8428 5.40291 19.7661 5.00742C19.7242 4.79222 19.9266 4.6096 20.1371 4.67357L20.1511 4.67823L21.5853 5.11443C21.8284 5.18888 22.0867 5.05278 22.1646 4.81083L22.5927 3.46965C22.6706 3.2277 22.538 2.96714 22.2972 2.88688L20.8711 2.41112ZM13.4184 9.90106C13.2649 10.549 13.0357 11.1911 12.7577 11.8145C12.6577 12.039 12.3413 12.0483 12.2308 11.8285C11.976 11.3213 11.7852 10.7874 11.6585 10.2756C11.4747 9.43228 11.3863 8.56918 11.7143 7.79913C11.9237 7.27568 12.5018 7.19077 13.0031 7.31639C13.8372 7.56997 13.5731 9.2229 13.4184 9.90106Z" stroke="#FAFAF5" stroke-width="4" mask="url(#path-1-outside-1_0_1)"/>
</g>
<defs>
<linearGradient id="paint0_linear_0_1" x1="22.9968" y1="4.99936" x2="4.49683" y2="13.9994" gradientUnits="userSpaceOnUse">
<stop stop-color="#C6C6C6"/>
<stop offset="1" stop-color="#D6CACA"/>
</linearGradient>
</defs>
</svg>
