<svg width="128" height="128" viewBox="0 0 128 128" fill="none" xmlns="http://www.w3.org/2000/svg">
  <path d="M118.275 24.9637L110.545 22.306L105.452 20.5667C101.647 19.2379 96.9958 20.3192 94.0823 23.1984C91.1183 25.9473 89.7469 30.4289 90.5812 34.4676C91.0362 37.1057 91.9083 42.4537 92.3634 45.0919C93.8738 53.2539 94.1203 61.9697 92.7046 69.9689C91.5355 76.6196 88.0532 87.5306 80.9434 88.638C78.3017 89.0483 77.0883 87.3612 78.2954 84.8989C84.1033 73.0369 88.2049 58.8429 84.1665 47.0917C82.6119 42.4081 78.6493 37.7702 73.9347 35.8746C66.9008 33.0475 58.3437 33.8683 52.441 39.1577C39.4285 51.4496 45.2617 76.0269 55.2786 89.5108C56.1697 90.7094 55.8663 92.4291 54.6466 93.2629C53.0477 94.3507 51.2845 94.8328 49.3885 94.1814C44.2505 91.9796 40.9832 85.5829 39.1504 80.261C37.4251 75.1019 36.692 69.4477 36.8563 63.9564C37.1028 59.1361 37.8801 49.9383 38.2024 45.1505C39.0366 37.4445 32.3819 30.7285 24.9118 31.8946C24.5895 31.9532 23.8943 32.0835 23.5973 32.1616C20.488 32.9824 14.1871 34.6695 9.90224 35.829C8.56876 36.1873 7.76614 37.5813 8.08845 38.9622L9.89592 46.6683C10.2182 48.0427 11.5517 48.9026 12.8915 48.5964C15.3183 48.0427 18.4909 47.3067 21.2527 46.6683C22.8832 46.2905 24.3873 47.6714 24.2166 49.3781C23.8564 53.5406 22.7947 62.3735 22.8768 66.4578C22.9337 78.1048 25.8598 89.9212 32.9127 99.3339C39.005 107.444 49.0157 112.238 58.7419 108.076C61.9839 106.74 64.8405 104.604 67.3052 102.057C68.0257 101.314 69.0937 101.08 70.0417 101.471C76.5259 104.148 83.781 104.454 90.2083 100.741C100.036 95.0412 104.624 83.29 106.419 72.4637C108.049 62.4582 107.613 52.5504 105.667 42.8185C105.395 41.3464 104.959 39.0599 104.542 36.8452C104.314 35.6401 105.414 34.6174 106.558 34.9757L106.634 35.0017L114.426 37.4445C115.747 37.8614 117.15 37.0992 117.573 35.7443L119.899 28.2337C120.322 26.8788 119.602 25.4196 118.294 24.9702L118.275 24.9637ZM70.0544 64.2496C69.2201 67.8779 67.9751 71.4736 66.4647 74.9651C65.9212 76.2223 64.2022 76.2744 63.6018 75.0433C62.2178 72.2032 61.1813 69.2132 60.4925 66.3471C59.4939 61.6244 59.0136 56.791 60.7958 52.4788C61.9334 49.5475 65.0743 49.072 67.7982 49.7755C72.3295 51.1955 70.8949 60.4519 70.0544 64.2496Z" fill="url(#paint0_linear_9_2)"/>
  <defs>
    <linearGradient id="paint0_linear_9_2" x1="122.095" y1="36.8001" x2="20.4403" y2="84.7795" gradientUnits="userSpaceOnUse">
      <stop stop-color="#BCB8B8"/>
      <stop offset="1" stop-color="#B19696"/>
    </linearGradient>
  </defs>
</svg>
